<?xml version="1.0" encoding="utf-8"?>
<!-- Generator: Adobe Illustrator 21.1.0, SVG Export Plug-In . SVG Version: 6.00 Build 0)  -->
<svg version="1.1" id="Layer_1" xmlns="http://www.w3.org/2000/svg" xmlns:xlink="http://www.w3.org/1999/xlink" x="0px" y="0px"
	 viewBox="0 0 190 45.8" style="enable-background:new 0 0 190 45.8;" xml:space="preserve">
<style type="text/css">
	.st0{fill:#346094;}
</style>
<path class="st0" d="M22.9,0C10.3,0,0,10.3,0,22.9c0,12.7,10.3,22.9,22.9,22.9c12.7,0,22.9-10.3,22.9-22.9S35.6,0,22.9,0 M22.9,44.4
	C11,44.4,1.4,34.8,1.4,22.9S11,1.4,22.9,1.4S44.4,11,44.4,22.9S34.8,44.4,22.9,44.4"/>
<path class="st0" d="M22.9,6.4c-9.2,0-16.7,7.5-16.7,16.7c0,1.5,0.2,3,0.6,4.4c0.3,1.1,1.4,1.7,2.5,1.4c1.1-0.3,1.7-1.4,1.4-2.5
	s-0.4-2.2-0.4-3.3c0-7,5.7-12.6,12.6-12.6c7,0,12.6,5.7,12.6,12.6c0,5.6-3.6,10.4-8.9,12.1c-1.1,0.3-1.7,1.5-1.3,2.6
	c0.3,0.9,1.1,1.4,2,1.4c0.2,0,0.4,0,0.6-0.1c7-2.2,11.8-8.6,11.8-16C39.6,13.9,32.1,6.4,22.9,6.4 M31.9,30.5
	c0.7-0.8,1.2-1.7,1.6-2.6c0.3-0.7,0-1.6-0.7-1.9s-1.6,0-1.9,0.7s-0.7,1.4-1.2,2c-3,3.7-8.5,4.3-12.3,1.3c-3.7-3-4.3-8.5-1.3-12.3
	c2.3-2.9,6.2-4,9.7-2.7c0.7,0.3,1.5-0.1,1.8-0.9c0.3-0.7-0.1-1.5-0.9-1.8c-4.6-1.6-9.8-0.2-12.9,3.6c-4,5-3.2,12.2,1.7,16.2
	c2.1,1.7,4.7,2.6,7.3,2.6C26.2,34.8,29.6,33.3,31.9,30.5 M25.6,28.3c-2.1,1-4.6,0.7-6.3-0.8c-0.4-0.3-1-0.3-1.3,0.1s-0.3,1,0.1,1.3
	c1.4,1.2,3.2,1.9,5,1.9c1.1,0,2.3-0.3,3.4-0.8c3.7-1.8,5.2-6.4,3.3-10c-0.9-1.8-2.4-3.1-4.3-3.8c-1.9-0.6-3.9-0.5-5.7,0.4
	c-0.6,0.3-1.2,0.7-1.7,1.2c-0.4,0.3-0.4,0.9-0.1,1.3s0.9,0.4,1.3,0.1s0.8-0.6,1.3-0.9c1.3-0.7,2.9-0.8,4.3-0.3
	c1.4,0.5,2.6,1.5,3.3,2.8C29.5,23.5,28.4,26.9,25.6,28.3"/>
<path class="st0" d="M62.3,13.6c0-0.3-0.1-0.5-0.2-0.6c-0.3-0.4-0.9-0.6-1.4-0.6c0,0-0.3,0-0.5,0c-0.3,0.1-0.7,0.3-0.7,0.7
	c0,0.5,0.4,0.6,1.1,0.8c0.3,0.1,0.7,0.2,1,0.3c0.4,0.1,0.9,0.3,1.4,0.4c0.3,0.1,0.7,0.2,1,0.3c0.2,0.1,0.8,0.3,1.2,0.7
	c0.4,0.3,1.2,1.1,1.2,2.6c0,0.6-0.1,1.2-0.4,1.7c-0.9,1.9-3.1,2.4-5,2.4c-1,0-2.2-0.2-3.1-0.6c-0.6-0.3-0.9-0.6-1.1-0.7
	c-0.4-0.4-1.2-1.2-1.3-2.6c0-0.2,0-0.3,0-0.5h3.8c0,0.5,0.1,0.9,0.6,1.2c0.3,0.2,0.7,0.3,1.3,0.3c1.1,0,1.5-0.4,1.5-1
	c0-0.4-0.3-0.6-0.9-0.8c-1.1-0.4-2.1-0.6-3.2-1c-0.8-0.3-1.7-0.7-2.2-1.4s-0.5-1.6-0.5-1.8c0-0.6,0.1-1.2,0.4-1.7
	c0.9-1.5,2.7-1.9,3.2-2c0.3-0.1,0.7-0.1,1.4-0.1c0.5,0,2,0,3.3,0.8c0.2,0.1,0.5,0.3,0.9,0.8c0.8,0.9,0.8,2,0.8,2.4L62.3,13.6z"/>
<path class="st0" d="M71.1,24.9h-3.4V13.3H71v0.9c0.1-0.1,0.2-0.2,0.3-0.4c0.3-0.3,1-0.8,2.1-0.8c0.9,0,1.7,0.3,2.3,0.9
	c0.7,0.6,1.4,1.7,1.4,3.8c0,1.9-0.6,3-1.2,3.6c-0.9,0.9-2,1-2.4,1s-0.8-0.1-0.9-0.1c-0.9-0.3-1.3-0.8-1.5-1
	C71.1,21.2,71.1,24.9,71.1,24.9z M71.6,16c-0.4,0.3-0.6,0.8-0.6,1.8s0.2,1.4,0.6,1.7c0.3,0.2,0.7,0.3,0.8,0.3c0.3,0,0.6-0.1,0.8-0.3
	c0.5-0.4,0.6-1.1,0.6-1.8c0-0.1,0.1-1.2-0.6-1.7c-0.3-0.2-0.7-0.2-0.8-0.2C72.2,15.7,71.9,15.7,71.6,16"/>
<path class="st0" d="M81.8,18.4c0,0.1,0,0.3,0.1,0.6c0.1,0.4,0.5,1.1,1.6,1.1c0.2,0,0.7,0,1.1-0.4c0.1-0.1,0.2-0.2,0.3-0.3h3.2
	c-0.2,0.7-0.6,1.2-0.8,1.4c-1.3,1.5-3.1,1.5-3.8,1.5c-0.5,0-2,0-3.3-1c-0.6-0.5-1.7-1.6-1.7-3.6c0-0.5,0.1-1.8,1-3
	C80,14,81.2,13,83.3,13c2.1,0,3.2,1,3.7,1.6c0.4,0.5,1.1,1.7,1.1,3.5c0,0.1,0,0.2,0,0.3C88.1,18.4,81.8,18.4,81.8,18.4z M85,16.7
	c0-0.1,0-0.4-0.2-0.7c-0.1-0.3-0.5-0.8-1.4-0.8c-0.3,0-1,0.1-1.4,0.8c-0.2,0.3-0.2,0.7-0.3,0.7H85z"/>
<path class="st0" d="M95.6,16.6c-0.1-0.7-0.6-1.1-1.3-1.1c-0.4,0-0.8,0.2-1.1,0.5c-0.5,0.6-0.4,1.8-0.4,1.8c0,0.2-0.1,2.1,1.5,2
	c0.2,0,0.4,0,0.6-0.1c0.3-0.2,0.6-0.5,0.7-1.2h3.2c-0.1,0.3-0.1,0.5-0.2,0.8c-0.6,2-2.3,2.6-2.9,2.8c-0.3,0.1-0.8,0.2-1.5,0.2
	c-0.8,0-1.3-0.1-1.6-0.2c-1.5-0.4-2.7-1.6-3-3.1c-0.1-0.3-0.1-0.6-0.1-1.3c0-0.6,0-1.9,1.1-3.1c0.6-0.7,1.7-1.6,3.8-1.6
	c0.6,0,2.6,0.1,3.8,1.7c0.6,0.8,0.7,1.5,0.7,1.9C98.9,16.6,95.6,16.6,95.6,16.6z"/>
<path class="st0" d="M104,12.3h-3.4V9.9h3.4V12.3z M104,22.1h-3.4v-8.8h3.4V22.1z"/>
<path class="st0" d="M106.7,22.1v-6.7h-1.2v-2.1h1.2v-0.4c0-0.9,0.1-1.6,0.8-2.2c0.8-0.7,1.9-0.7,2.9-0.7c0.5,0,0.9,0,1.4,0v2.3
	c-0.4,0-0.8,0-1.2,0c-0.3,0-0.5,0.1-0.6,0.2c-0.1,0.2-0.1,0.4-0.1,0.4v0.4h1.8v2.1H110v6.7C110,22.1,106.7,22.1,106.7,22.1z"/>
<path class="st0" d="M116.9,12.3h-3.4V9.9h3.4V12.3z M116.9,22.1h-3.4v-8.8h3.4V22.1z"/>
<path class="st0" d="M124.6,16.6c-0.1-0.7-0.6-1.1-1.3-1.1c-0.4,0-0.8,0.2-1.1,0.5c-0.5,0.6-0.4,1.8-0.4,1.8c0,0.2-0.1,2.1,1.5,2
	c0.2,0,0.4,0,0.6-0.1c0.3-0.2,0.6-0.5,0.7-1.2h3.2c-0.1,0.3-0.1,0.5-0.2,0.8c-0.6,2-2.3,2.6-2.9,2.8c-0.3,0.1-0.8,0.2-1.5,0.2
	c-0.8,0-1.3-0.1-1.6-0.2c-1.5-0.4-2.7-1.6-3-3.1c-0.1-0.3-0.1-0.6-0.1-1.3c0-0.6,0-1.9,1.1-3.1c0.6-0.7,1.7-1.6,3.8-1.6
	c0.6,0,2.6,0.1,3.8,1.7c0.6,0.8,0.7,1.5,0.7,1.9C127.9,16.6,124.6,16.6,124.6,16.6z"/>
<rect x="129.1" y="16.1" class="st0" width="5.4" height="2.9"/>
<path class="st0" d="M148.4,22.1H146l-0.1-1.2c-0.2,0.2-0.4,0.5-0.9,0.8c-1,0.7-2.2,0.7-2.6,0.7c-0.6,0-2.2-0.1-3.6-1.2
	c-0.9-0.7-2.1-2.3-2.1-5.1c0-0.3,0-1.1,0.2-2c0.6-2.2,2.2-3.8,4.3-4.3c0.3-0.1,0.8-0.2,1.6-0.2s2.5,0.1,4,1.6
	c1.1,1.1,1.3,2.3,1.4,2.9h-3.6c0-0.1-0.1-0.4-0.3-0.7c-0.4-0.5-1-0.8-1.6-0.8c-0.3,0-0.7,0.1-1,0.3c-0.7,0.4-1.3,1.3-1.3,3
	c0,0.2,0,1.4,0.4,2.2c0.1,0.2,0.3,0.5,0.7,0.8c0.6,0.4,1.2,0.4,1.4,0.4c0.3,0,1.1,0,1.7-0.7c0.2-0.3,0.3-0.5,0.3-0.7h-1.6v-2.6h5
	v6.8H148.4z"/>
<path class="st0" d="M150.5,13.3h3.2v1.4c0.3-0.6,0.9-1.6,2.7-1.6c0.2,0,0.4,0,0.7,0.1v3c-0.5-0.2-0.9-0.2-1.1-0.2
	c-0.8,0-1.6,0.4-1.9,1.2c-0.2,0.4-0.2,0.9-0.2,1v4h-3.4V13.3z"/>
<path class="st0" d="M164.5,13.3c1.9,0.7,3,2.4,3,4.4c0,0.6-0.1,2.4-1.6,3.6c-0.5,0.4-1,0.7-1.5,0.8c-0.3,0.1-0.9,0.2-1.7,0.2
	c-0.6,0-1.3-0.1-1.8-0.3c-1.9-0.7-2.9-2.4-2.9-4.4c0-1,0.2-1.6,0.4-2c0.8-1.8,2.5-2.7,4.4-2.7C163,13,163.8,13,164.5,13.3 M162,15.6
	c-0.6,0.4-0.7,1.3-0.7,2c0,0.1,0,1.1,0.3,1.7c0.3,0.5,0.8,0.6,1.1,0.6c0.2,0,0.5,0,0.8-0.3c0.4-0.3,0.6-0.9,0.6-2
	c0-1-0.2-1.5-0.6-1.8c-0.1-0.1-0.4-0.3-0.8-0.3C162.6,15.5,162.3,15.5,162,15.6"/>
<path class="st0" d="M178.4,22.1h-3.3V21l-0.2,0.2c-0.3,0.5-1.1,1.2-2.5,1.2c-1.3,0-2.6-0.6-3-1.9c-0.2-0.6-0.2-1.1-0.2-1.7v-5.4
	h3.3v4.5c0,0.5-0.1,0.9,0.2,1.3c0.2,0.2,0.4,0.4,0.9,0.4c0.1,0,0.5,0,0.8-0.2c0.5-0.4,0.5-1.1,0.5-1.7v-4.4h3.3v8.8H178.4z"/>
<path class="st0" d="M183.9,24.9h-3.4V13.3h3.2v0.9c0.1-0.1,0.2-0.2,0.3-0.4c0.3-0.3,1-0.8,2.1-0.8c0.9,0,1.7,0.3,2.3,0.9
	c0.7,0.6,1.4,1.7,1.4,3.8c0,1.9-0.6,3-1.2,3.6c-0.9,0.9-2,1-2.4,1s-0.8-0.1-0.9-0.1c-0.9-0.3-1.3-0.8-1.5-1L183.9,24.9L183.9,24.9z
	 M184.4,16c-0.4,0.3-0.6,0.8-0.6,1.8s0.2,1.4,0.6,1.7c0.3,0.2,0.7,0.3,0.8,0.3c0.3,0,0.6-0.1,0.8-0.3c0.5-0.4,0.6-1.1,0.6-1.8
	c0-0.1,0.1-1.2-0.6-1.7c-0.3-0.2-0.7-0.2-0.8-0.2C185.1,15.7,184.8,15.7,184.4,16"/>
<g>
	<path class="st0" d="M55.5,34.5l1.3-0.1c0.1,0.5,0.2,1,0.4,1.3c0.2,0.3,0.6,0.6,1.1,0.8c0.5,0.2,1,0.3,1.6,0.3c0.5,0,1-0.1,1.4-0.2
		s0.7-0.4,0.9-0.7c0.2-0.3,0.3-0.6,0.3-0.9c0-0.3-0.1-0.6-0.3-0.9c-0.2-0.3-0.5-0.5-1-0.6c-0.3-0.1-0.9-0.3-1.9-0.5
		c-1-0.2-1.7-0.5-2.1-0.7c-0.5-0.3-0.9-0.6-1.1-1c-0.3-0.4-0.4-0.8-0.4-1.3c0-0.5,0.2-1,0.5-1.5c0.3-0.5,0.8-0.8,1.3-1.1
		c0.6-0.2,1.2-0.4,2-0.4c0.8,0,1.5,0.1,2.1,0.4c0.6,0.3,1.1,0.6,1.4,1.1s0.5,1.1,0.5,1.7l-1.4,0.1c-0.1-0.7-0.3-1.2-0.7-1.5
		c-0.4-0.3-1-0.5-1.9-0.5c-0.9,0-1.5,0.2-1.9,0.5c-0.4,0.3-0.6,0.7-0.6,1.1c0,0.4,0.1,0.7,0.4,1c0.3,0.2,1,0.5,2.1,0.8
		c1.2,0.3,1.9,0.5,2.4,0.7c0.6,0.3,1.1,0.7,1.4,1.1c0.3,0.4,0.4,1,0.4,1.5c0,0.6-0.2,1.1-0.5,1.6c-0.3,0.5-0.8,0.9-1.4,1.2
		c-0.6,0.3-1.3,0.4-2.1,0.4c-1,0-1.8-0.1-2.4-0.4c-0.7-0.3-1.2-0.7-1.5-1.3C55.7,35.8,55.5,35.2,55.5,34.5z"/>
	<path class="st0" d="M66,34c0-1.4,0.4-2.5,1.2-3.2c0.7-0.6,1.5-0.9,2.4-0.9c1.1,0,1.9,0.4,2.6,1.1c0.7,0.7,1,1.7,1,2.9
		c0,1-0.1,1.8-0.5,2.4c-0.3,0.6-0.7,1-1.3,1.3c-0.6,0.3-1.2,0.5-1.9,0.5c-1.1,0-2-0.3-2.6-1S66,35.3,66,34z M67.3,34
		c0,1,0.2,1.7,0.7,2.2c0.4,0.5,1,0.7,1.6,0.7c0.7,0,1.2-0.2,1.6-0.7s0.7-1.3,0.7-2.3c0-1-0.2-1.7-0.7-2.2c-0.4-0.5-1-0.7-1.6-0.7
		c-0.7,0-1.2,0.2-1.6,0.7S67.3,33,67.3,34z"/>
	<path class="st0" d="M75.7,37.9v-6.8h-1.2v-1h1.2v-0.8c0-0.5,0-0.9,0.1-1.2c0.1-0.3,0.4-0.6,0.7-0.8c0.3-0.2,0.8-0.3,1.3-0.3
		c0.4,0,0.8,0,1.2,0.1l-0.2,1.2c-0.3,0-0.5-0.1-0.8-0.1c-0.4,0-0.7,0.1-0.8,0.3s-0.2,0.5-0.2,1v0.7h1.5v1H77v6.8H75.7z"/>
	<path class="st0" d="M83.1,36.7l0.2,1.2c-0.4,0.1-0.7,0.1-1,0.1c-0.5,0-0.8-0.1-1.1-0.2c-0.3-0.2-0.4-0.3-0.6-0.6
		c-0.1-0.2-0.2-0.8-0.2-1.6v-4.5h-1v-1h1v-1.9l1.3-0.8v2.7h1.3v1h-1.3v4.5c0,0.4,0,0.6,0.1,0.7c0,0.1,0.1,0.2,0.2,0.3
		s0.3,0.1,0.5,0.1C82.6,36.8,82.8,36.8,83.1,36.7z"/>
	<path class="st0" d="M86.4,37.9L84,30.1h1.4l1.2,4.5l0.5,1.7c0-0.1,0.2-0.6,0.4-1.6l1.2-4.6h1.4l1.2,4.5l0.4,1.5l0.4-1.5l1.3-4.5
		h1.3l-2.4,7.8h-1.4l-1.2-4.7l-0.3-1.3l-1.6,6H86.4z"/>
	<path class="st0" d="M101.5,37c-0.5,0.4-1,0.7-1.4,0.9c-0.5,0.2-0.9,0.3-1.5,0.3c-0.9,0-1.5-0.2-2-0.6c-0.5-0.4-0.7-1-0.7-1.6
		c0-0.4,0.1-0.7,0.3-1c0.2-0.3,0.4-0.6,0.7-0.8c0.3-0.2,0.6-0.3,0.9-0.4c0.3-0.1,0.6-0.1,1.2-0.2c1.1-0.1,1.8-0.3,2.4-0.5
		c0-0.2,0-0.3,0-0.3c0-0.5-0.1-0.9-0.4-1.1c-0.3-0.3-0.8-0.4-1.5-0.4c-0.6,0-1.1,0.1-1.4,0.3c-0.3,0.2-0.5,0.6-0.7,1.2l-1.3-0.2
		c0.1-0.6,0.3-1,0.6-1.3c0.3-0.3,0.7-0.6,1.2-0.8C98.5,30,99,30,99.7,30c0.7,0,1.2,0.1,1.6,0.2c0.4,0.2,0.7,0.4,0.9,0.6
		c0.2,0.2,0.3,0.5,0.4,0.9c0,0.2,0.1,0.6,0.1,1.2v1.8c0,1.2,0,2,0.1,2.3c0.1,0.3,0.2,0.6,0.3,0.9h-1.4
		C101.6,37.6,101.5,37.3,101.5,37z M101.4,34c-0.5,0.2-1.2,0.4-2.2,0.5c-0.5,0.1-0.9,0.2-1.1,0.3c-0.2,0.1-0.4,0.2-0.5,0.4
		c-0.1,0.2-0.2,0.4-0.2,0.6c0,0.4,0.1,0.6,0.4,0.9c0.3,0.2,0.7,0.4,1.2,0.4c0.5,0,1-0.1,1.4-0.3c0.4-0.2,0.7-0.5,0.9-0.9
		c0.1-0.3,0.2-0.7,0.2-1.3V34z"/>
	<path class="st0" d="M105.4,37.9v-7.8h1.2v1.2c0.3-0.6,0.6-0.9,0.8-1.1c0.3-0.2,0.5-0.3,0.8-0.3c0.4,0,0.9,0.1,1.4,0.4l-0.5,1.2
		c-0.3-0.2-0.6-0.3-1-0.3c-0.3,0-0.5,0.1-0.8,0.3c-0.2,0.2-0.4,0.4-0.5,0.7c-0.1,0.5-0.2,1-0.2,1.5v4.1H105.4z"/>
	<path class="st0" d="M116.3,35.4l1.4,0.2c-0.2,0.8-0.6,1.4-1.2,1.9c-0.6,0.4-1.3,0.7-2.2,0.7c-1.1,0-2-0.4-2.7-1.1
		c-0.7-0.7-1-1.7-1-2.9c0-1.3,0.3-2.3,1-3s1.5-1.1,2.6-1.1c1,0,1.9,0.4,2.5,1.1c0.7,0.7,1,1.7,1,3c0,0.1,0,0.2,0,0.4h-5.8
		c0,0.9,0.3,1.5,0.7,2c0.4,0.5,1,0.7,1.6,0.7c0.5,0,0.9-0.1,1.2-0.4S116.1,36,116.3,35.4z M112,33.3h4.3c-0.1-0.7-0.2-1.1-0.5-1.5
		c-0.4-0.5-1-0.8-1.6-0.8c-0.6,0-1.1,0.2-1.5,0.6C112.3,32.1,112,32.6,112,33.3z"/>
	<path class="st0" d="M124.4,34.5l1.3-0.1c0.1,0.5,0.2,1,0.4,1.3c0.2,0.3,0.6,0.6,1.1,0.8c0.5,0.2,1,0.3,1.6,0.3
		c0.5,0,1-0.1,1.4-0.2s0.7-0.4,0.9-0.7c0.2-0.3,0.3-0.6,0.3-0.9c0-0.3-0.1-0.6-0.3-0.9c-0.2-0.3-0.5-0.5-1-0.6
		c-0.3-0.1-0.9-0.3-1.9-0.5c-1-0.2-1.7-0.5-2.1-0.7c-0.5-0.3-0.9-0.6-1.1-1c-0.3-0.4-0.4-0.8-0.4-1.3c0-0.5,0.2-1,0.5-1.5
		c0.3-0.5,0.8-0.8,1.3-1.1c0.6-0.2,1.2-0.4,2-0.4c0.8,0,1.5,0.1,2.1,0.4c0.6,0.3,1.1,0.6,1.4,1.1s0.5,1.1,0.5,1.7l-1.4,0.1
		c-0.1-0.7-0.3-1.2-0.7-1.5c-0.4-0.3-1-0.5-1.9-0.5c-0.9,0-1.5,0.2-1.9,0.5c-0.4,0.3-0.6,0.7-0.6,1.1c0,0.4,0.1,0.7,0.4,1
		c0.3,0.2,1,0.5,2.1,0.8c1.2,0.3,1.9,0.5,2.4,0.7c0.6,0.3,1.1,0.7,1.4,1.1c0.3,0.4,0.4,1,0.4,1.5c0,0.6-0.2,1.1-0.5,1.6
		c-0.3,0.5-0.8,0.9-1.4,1.2c-0.6,0.3-1.3,0.4-2.1,0.4c-1,0-1.8-0.1-2.4-0.4c-0.7-0.3-1.2-0.7-1.5-1.3
		C124.6,35.8,124.4,35.2,124.4,34.5z"/>
	<path class="st0" d="M134.9,34c0-1.4,0.4-2.5,1.2-3.2c0.7-0.6,1.5-0.9,2.4-0.9c1.1,0,1.9,0.4,2.6,1.1c0.7,0.7,1,1.7,1,2.9
		c0,1-0.1,1.8-0.5,2.4c-0.3,0.6-0.7,1-1.3,1.3c-0.6,0.3-1.2,0.5-1.9,0.5c-1.1,0-2-0.3-2.6-1C135.2,36.3,134.9,35.3,134.9,34z
		 M136.2,34c0,1,0.2,1.7,0.7,2.2c0.4,0.5,1,0.7,1.6,0.7c0.7,0,1.2-0.2,1.6-0.7c0.4-0.5,0.7-1.3,0.7-2.3c0-1-0.2-1.7-0.7-2.2
		c-0.4-0.5-1-0.7-1.6-0.7c-0.7,0-1.2,0.2-1.6,0.7S136.2,33,136.2,34z"/>
	<path class="st0" d="M144.3,37.9V27.2h1.3v10.7H144.3z"/>
	<path class="st0" d="M153.4,37.9v-1.1c-0.6,0.9-1.4,1.3-2.5,1.3c-0.5,0-0.9-0.1-1.3-0.3c-0.4-0.2-0.7-0.4-0.9-0.7
		c-0.2-0.3-0.3-0.6-0.4-1c-0.1-0.3-0.1-0.7-0.1-1.2v-4.8h1.3v4.3c0,0.7,0,1.2,0.1,1.4c0.1,0.3,0.3,0.6,0.5,0.8
		c0.3,0.2,0.6,0.3,1,0.3s0.8-0.1,1.1-0.3c0.3-0.2,0.6-0.5,0.7-0.8c0.1-0.3,0.2-0.9,0.2-1.5v-4.2h1.3v7.8H153.4z"/>
	<path class="st0" d="M160.1,36.7l0.2,1.2c-0.4,0.1-0.7,0.1-1,0.1c-0.5,0-0.8-0.1-1.1-0.2c-0.3-0.2-0.4-0.3-0.6-0.6
		c-0.1-0.2-0.2-0.8-0.2-1.6v-4.5h-1v-1h1v-1.9l1.3-0.8v2.7h1.3v1h-1.3v4.5c0,0.4,0,0.6,0.1,0.7c0,0.1,0.1,0.2,0.2,0.3
		c0.1,0.1,0.3,0.1,0.5,0.1C159.7,36.8,159.9,36.8,160.1,36.7z"/>
	<path class="st0" d="M162,28.7v-1.5h1.3v1.5H162z M162,37.9v-7.8h1.3v7.8H162z"/>
	<path class="st0" d="M165.5,34c0-1.4,0.4-2.5,1.2-3.2c0.7-0.6,1.5-0.9,2.4-0.9c1.1,0,1.9,0.4,2.6,1.1c0.7,0.7,1,1.7,1,2.9
		c0,1-0.1,1.8-0.5,2.4c-0.3,0.6-0.7,1-1.3,1.3c-0.6,0.3-1.2,0.5-1.9,0.5c-1.1,0-2-0.3-2.6-1C165.8,36.3,165.5,35.3,165.5,34z
		 M166.8,34c0,1,0.2,1.7,0.7,2.2c0.4,0.5,1,0.7,1.6,0.7c0.7,0,1.2-0.2,1.6-0.7c0.4-0.5,0.7-1.3,0.7-2.3c0-1-0.2-1.7-0.7-2.2
		c-0.4-0.5-1-0.7-1.6-0.7c-0.7,0-1.2,0.2-1.6,0.7S166.8,33,166.8,34z"/>
	<path class="st0" d="M174.9,37.9v-7.8h1.2v1.1c0.6-0.9,1.4-1.3,2.5-1.3c0.5,0,0.9,0.1,1.3,0.3c0.4,0.2,0.7,0.4,0.9,0.7
		c0.2,0.3,0.3,0.6,0.4,1c0,0.2,0.1,0.7,0.1,1.3v4.8h-1.3v-4.7c0-0.5-0.1-0.9-0.2-1.2c-0.1-0.3-0.3-0.5-0.5-0.6
		c-0.3-0.2-0.6-0.2-0.9-0.2c-0.6,0-1,0.2-1.5,0.5c-0.4,0.4-0.6,1-0.6,2v4.2H174.9z"/>
	<path class="st0" d="M183.3,35.6l1.3-0.2c0.1,0.5,0.3,0.9,0.6,1.2c0.3,0.3,0.8,0.4,1.4,0.4c0.6,0,1.1-0.1,1.3-0.4
		c0.3-0.2,0.4-0.5,0.4-0.9c0-0.3-0.1-0.5-0.4-0.7c-0.2-0.1-0.6-0.3-1.3-0.4c-1-0.2-1.6-0.5-2-0.6c-0.4-0.2-0.7-0.4-0.8-0.7
		c-0.2-0.3-0.3-0.7-0.3-1c0-0.3,0.1-0.7,0.2-1c0.2-0.3,0.4-0.5,0.6-0.7c0.2-0.2,0.5-0.3,0.8-0.4c0.4-0.1,0.7-0.2,1.1-0.2
		c0.6,0,1.1,0.1,1.6,0.3c0.5,0.2,0.8,0.4,1,0.7c0.2,0.3,0.4,0.7,0.5,1.2l-1.3,0.2c-0.1-0.4-0.2-0.7-0.5-0.9
		c-0.3-0.2-0.7-0.3-1.2-0.3c-0.6,0-1,0.1-1.3,0.3c-0.3,0.2-0.4,0.4-0.4,0.7c0,0.2,0.1,0.3,0.2,0.5c0.1,0.1,0.3,0.3,0.5,0.4
		c0.1,0,0.5,0.2,1.2,0.3c0.9,0.2,1.6,0.5,2,0.6c0.4,0.2,0.7,0.4,0.9,0.7s0.3,0.7,0.3,1.1c0,0.4-0.1,0.9-0.4,1.2
		c-0.3,0.4-0.6,0.7-1.1,0.9c-0.5,0.2-1,0.3-1.6,0.3c-1,0-1.8-0.2-2.3-0.6C183.8,37,183.5,36.4,183.3,35.6z"/>
</g>
</svg>
